<svg width="78" height="31" viewBox="0 0 78 31" fill="none" xmlns="http://www.w3.org/2000/svg">
<path d="M5.17563 28.5455C5.17563 27.9898 4.98495 27.5213 4.60903 27.1345C4.23312 26.7477 3.77549 26.557 3.24158 26.557C2.7567 26.557 2.33721 26.7096 1.98308 27.0201C1.63441 27.3252 1.41649 27.6956 1.33477 28.1369H0.817205V26.6387H0V30.4523H0.817205V28.8997H1.33477C1.41649 29.3627 1.63441 29.755 1.98308 30.0655C2.33176 30.3761 2.75126 30.5341 3.24158 30.5341C3.77549 30.5341 4.23312 30.3434 4.60903 29.9566C4.98495 29.5752 5.17563 29.1012 5.17563 28.5455ZM4.35842 28.5455C4.35842 28.9051 4.24946 29.2047 4.03154 29.439C3.80817 29.6787 3.54667 29.7986 3.24158 29.7986C2.93649 29.7986 2.67498 29.6787 2.45706 29.439C2.23369 29.2047 2.12473 28.9051 2.12473 28.5455C2.12473 28.186 2.23369 27.8863 2.45706 27.6466C2.67498 27.4123 2.93649 27.2925 3.24158 27.2925C3.54667 27.2925 3.80817 27.4123 4.03154 27.6466C4.24946 27.8863 4.35842 28.186 4.35842 28.5455Z" fill="#46466E"/>
<path d="M6.4803 26.6389V30.4526H7.29751V29.1995H8.08747C8.47973 29.1995 8.80661 29.0742 9.06267 28.8291C9.31872 28.5839 9.44948 28.2788 9.44948 27.9192C9.44948 27.5542 9.31872 27.2546 9.06267 27.004C8.80116 26.7588 8.47973 26.6389 8.08747 26.6389H6.4803ZM8.06023 27.3744C8.22367 27.3744 8.35987 27.4289 8.46883 27.5324C8.57779 27.6359 8.63227 27.7667 8.63227 27.9192C8.63227 28.0718 8.57779 28.2025 8.46883 28.306C8.35987 28.4096 8.22367 28.464 8.06023 28.464H7.29751V27.3744H8.06023Z" fill="#46466E"/>
<path d="M14.1307 30.4526V26.6389H13.4225L11.5429 29.0633V26.6389H10.7257V30.4526H11.4339L13.3135 28.0282V30.4526H14.1307Z" fill="#46466E"/>
<path d="M15.1624 29.7171V31.2425H15.9796V30.4526H18.2678V31.2425H19.085V29.7171H18.6219V26.6389H15.9796V27.8103C15.9796 28.0663 15.9579 28.306 15.9143 28.5294C15.8707 28.7582 15.8216 28.938 15.7726 29.0742C15.7181 29.205 15.6582 29.3248 15.5874 29.4392C15.5166 29.5482 15.473 29.619 15.4457 29.6517C15.413 29.6789 15.3967 29.7062 15.3804 29.7171H15.1624ZM16.7968 27.8103V27.3744H17.8047V29.7171H16.1976L16.2629 29.6517C16.3011 29.6081 16.3501 29.5373 16.41 29.4338C16.47 29.3303 16.5244 29.2104 16.5844 29.0742C16.6443 28.938 16.6933 28.7528 16.7315 28.5294C16.7751 28.306 16.7968 28.0663 16.7968 27.8103Z" fill="#46466E"/>
<path d="M23.6559 30.4526V26.6389H22.9476L21.0681 29.0633V26.6389H20.2509V30.4526H20.9591L22.8387 28.0282V30.4526H23.6559Z" fill="#46466E"/>
<path d="M25.941 26.6389H25.1238V27.8103C25.1238 28.2679 25.2436 28.622 25.4833 28.8726C25.7285 29.1287 26.0608 29.254 26.4858 29.254C26.8508 29.254 27.1504 29.1832 27.3847 29.0361V30.4526H28.2019V26.6389H27.3847V28.2461L27.2921 28.3169C27.2322 28.3605 27.1396 28.4041 27.0142 28.4531C26.8889 28.4967 26.7582 28.5185 26.622 28.5185C26.4041 28.5185 26.2352 28.4586 26.1153 28.3387C26.0009 28.2134 25.941 28.0391 25.941 27.8103V26.6389Z" fill="#46466E"/>
<path d="M32.9927 26.6389H32.1755V28.1644H30.5411V26.6389H29.7239V30.4526H30.5411V28.8999H32.1755V30.4526H32.9927V26.6389Z" fill="#46466E"/>
<path d="M36.4777 28.8454H35.5515L36.0146 27.5924L36.4777 28.8454ZM36.7501 29.5536L37.077 30.4526H37.9487L36.4505 26.6389H35.5788L34.0806 30.4526H34.9522L35.2791 29.5536H36.7501Z" fill="#46466E"/>
<path d="M41.5112 26.6389H40.694V30.4526H41.5112V29.363L42.0015 28.8182L43.1184 30.4526H44.0718L42.5463 28.2189L43.9628 26.6389H43.0094L41.5112 28.3006V26.6389Z" fill="#46466E"/>
<path d="M45.7308 28.5455C45.7308 28.1969 45.8506 27.8972 46.0903 27.6575C46.3246 27.4123 46.6133 27.2925 46.9566 27.2925C47.2998 27.2925 47.5885 27.4123 47.8228 27.6575C48.0625 27.8972 48.1824 28.1969 48.1824 28.5455C48.1824 28.8997 48.0625 29.1939 47.8228 29.4336C47.5885 29.6787 47.2998 29.7986 46.9566 29.7986C46.6133 29.7986 46.3246 29.6787 46.0903 29.4336C45.8506 29.1939 45.7308 28.8997 45.7308 28.5455ZM44.8863 28.5455C44.8863 29.0903 45.0879 29.5643 45.4856 29.9511C45.8833 30.3379 46.3736 30.5341 46.9566 30.5341C47.5395 30.5341 48.0298 30.3379 48.4275 29.9511C48.8252 29.5643 49.0268 29.0903 49.0268 28.5455C49.0268 27.9953 48.8252 27.5268 48.4275 27.1399C48.0298 26.7531 47.5395 26.557 46.9566 26.557C46.3736 26.557 45.8833 26.7531 45.4856 27.1399C45.0879 27.5268 44.8863 27.9953 44.8863 28.5455Z" fill="#46466E"/>
<path d="M52.3743 28.3006L51.0668 26.6389H50.3313V30.4526H51.1485V27.9192L52.3743 29.4719L53.6002 27.9083V30.4526H54.4174V26.6389H53.6928L52.3743 28.3006Z" fill="#46466E"/>
<path d="M59.1799 26.6389H55.9383V30.4526H56.7555V27.3744H58.3627V30.4526H59.1799V26.6389Z" fill="#46466E"/>
<path d="M62.6651 28.8454H61.739L62.202 27.5924L62.6651 28.8454ZM62.9375 29.5536L63.2644 30.4526H64.1361L62.6379 26.6389H61.7662L60.268 30.4526H61.1397L61.4666 29.5536H62.9375Z" fill="#46466E"/>
<path d="M68.4917 26.6389H67.6744V28.1644H66.04V26.6389H65.2228V30.4526H66.04V28.8999H67.6744V30.4526H68.4917V26.6389Z" fill="#46466E"/>
<path d="M70.831 26.6389H70.0138V30.4526H70.831V26.6389Z" fill="#46466E"/>
<path d="M75.1863 26.6389H73.4974C73.116 26.6389 72.8055 26.7588 72.5603 26.9985C72.3152 27.2382 72.1899 27.5379 72.1899 27.892C72.1899 28.0445 72.2171 28.1862 72.2607 28.3224C72.3097 28.4586 72.3642 28.5621 72.4296 28.6384C72.4895 28.7146 72.5549 28.7855 72.6366 28.8508C72.7129 28.9162 72.7673 28.9598 72.8 28.9762C72.8273 28.987 72.8545 29.0034 72.8709 29.0088L72.0536 30.4526H72.9253L73.6608 29.1178H74.3691V30.4526H75.1863V26.6389ZM73.0071 27.892C73.0071 27.7394 73.0561 27.6196 73.1542 27.5215C73.2522 27.4235 73.3775 27.3744 73.5246 27.3744H74.3691V28.3823H73.5246C73.3775 28.3823 73.2522 28.3333 73.1542 28.2407C73.0561 28.1481 73.0071 28.0282 73.0071 27.892Z" fill="#46466E"/>
<path d="M2.49057 6.10352e-05H0V17.9875H2.49057V11.3143C2.49057 10.1854 2.77137 9.29483 3.33296 8.66766C3.89456 8.04048 4.66371 7.71435 5.61598 7.71435C6.43396 7.71435 7.11765 8.01539 7.66704 8.5924C8.21643 9.18194 8.49723 9.92201 8.49723 10.8126V18.0001H11V10.8126C11 9.15686 10.5483 7.85233 9.64484 6.87393C8.7414 5.89553 7.55716 5.40633 6.11654 5.40633C5.70144 5.40633 5.28635 5.45651 4.88346 5.5694C4.46837 5.68229 4.13873 5.80773 3.87014 5.94571C3.60155 6.08368 3.34517 6.23421 3.11321 6.40982C2.88124 6.58543 2.72253 6.71086 2.64928 6.78612C2.57603 6.86139 2.51498 6.91156 2.49057 6.94919V6.10352e-05Z" fill="#F0145A"/>
<path d="M16.5675 0H14V17.9725H16.5675V0Z" fill="#323264"/>
<path d="M31.7109 12.7088L31.8393 11.425C31.8393 9.70482 31.2745 8.26702 30.1191 7.11165C28.9637 5.95627 27.5259 5.39142 25.8057 5.39142C24.0854 5.39142 22.5963 6.00762 21.3639 7.24002C20.1315 8.47242 19.5153 9.9359 19.5153 11.6818C19.5153 13.4791 20.1572 15.0196 21.4152 16.3033C22.6733 17.5871 24.1881 18.2289 25.934 18.2289C26.6016 18.2289 27.2178 18.1262 27.834 17.9465C28.4502 17.7411 28.9637 17.5357 29.3231 17.3303C29.7083 17.0992 30.0934 16.8425 30.4272 16.5601C30.761 16.2776 30.992 16.0722 31.0947 15.9439C31.1974 15.8155 31.2745 15.7385 31.3258 15.6614L29.6569 13.9926L29.2718 14.4804C29.015 14.7885 28.5786 15.0966 27.9624 15.4304C27.3205 15.7641 26.6529 15.9182 25.934 15.9182C24.9327 15.9182 24.0854 15.6101 23.3665 14.9682C22.6476 14.3263 22.2112 13.5818 22.0828 12.7088H31.7109ZM25.8057 7.5738C26.7556 7.5738 27.5259 7.85622 28.1678 8.3954C28.784 8.96025 29.1691 9.65347 29.3231 10.5264H22.1855C22.4166 9.65347 22.8274 8.96025 23.4692 8.3954C24.0854 7.85622 24.8814 7.5738 25.8057 7.5738Z" fill="#323264"/>
<path d="M43.6854 17.2276C43.6854 18.3573 43.3516 19.2816 42.6584 20.0005C41.9909 20.6937 41.1436 21.0532 40.0909 21.0532C39.6288 21.0532 39.1666 20.9762 38.7301 20.8478C38.2937 20.7194 37.9599 20.5654 37.6775 20.3856C37.395 20.2059 37.1383 20.0262 36.8815 19.7951C36.6505 19.564 36.4964 19.41 36.4194 19.333C36.3424 19.2559 36.291 19.1789 36.2397 19.1276L34.5708 20.7964L34.7762 21.0532C34.9046 21.2329 35.1356 21.464 35.4437 21.7207C35.7518 21.9518 36.1113 22.2086 36.5221 22.4653C36.9329 22.6964 37.4464 22.9018 38.0883 23.0815C38.7301 23.2612 39.3977 23.3639 40.0909 23.3639C41.8368 23.3639 43.2746 22.7734 44.4813 21.5924C45.6624 20.3856 46.2529 18.9478 46.2529 17.2019V5.64817H43.6854V6.93192L43.2489 6.54679C42.9665 6.29004 42.53 6.03329 41.9138 5.77654C41.2976 5.51979 40.6301 5.39142 39.9625 5.39142C38.3964 5.39142 37.0613 5.98194 35.9059 7.18867C34.7505 8.3954 34.1857 9.8332 34.1857 11.5534C34.1857 13.2736 34.7505 14.7114 35.9059 15.9182C37.0613 17.1249 38.3964 17.7154 39.9625 17.7154C40.399 17.7154 40.8098 17.6641 41.2463 17.5614C41.6571 17.433 41.9909 17.3046 42.2733 17.1763C42.5557 17.0479 42.8125 16.8938 43.0435 16.7141C43.2746 16.5344 43.4543 16.406 43.5057 16.3547L43.6854 16.1749V17.2276ZM36.7532 11.5534C36.7532 10.4751 37.0869 9.57645 37.7802 8.83187C38.4734 8.0873 39.295 7.70217 40.2193 7.70217C41.1436 7.70217 41.9652 8.0873 42.6584 8.83187C43.326 9.57645 43.6854 10.4751 43.6854 11.5534C43.6854 12.6318 43.326 13.5304 42.6584 14.275C41.9652 15.0195 41.1436 15.4047 40.2193 15.4047C39.295 15.4047 38.4734 15.0195 37.7802 14.275C37.0869 13.5304 36.7532 12.6318 36.7532 11.5534Z" fill="#323264"/>
<path d="M59.6546 17.9722V10.0129C59.6546 8.7035 59.1668 7.59947 58.2168 6.72652C57.2668 5.82789 56.0344 5.39142 54.5196 5.39142C53.9291 5.39142 53.3386 5.46844 52.7737 5.62249C52.2089 5.80222 51.7467 5.98194 51.4129 6.18734C51.0792 6.39274 50.7454 6.62382 50.4373 6.90625C50.1292 7.163 49.9495 7.34272 49.8468 7.44542C49.7697 7.54812 49.6927 7.62515 49.6414 7.70217L51.3102 9.37105L51.644 8.93457C51.8494 8.65215 52.2089 8.3954 52.748 8.11297C53.2872 7.83055 53.8777 7.70217 54.5196 7.70217C55.2642 7.70217 55.8804 7.93325 56.3682 8.36972C56.856 8.8062 57.0871 9.37105 57.0871 10.0129L52.594 10.7832C51.49 10.9629 50.5913 11.3994 49.9751 12.0926C49.3333 12.7858 48.9995 13.6331 48.9995 14.6344C48.9995 15.5844 49.4103 16.406 50.2319 17.1249C51.0792 17.8695 52.1062 18.2289 53.3642 18.2289C53.8007 18.2289 54.2115 18.1776 54.6223 18.0492C55.0588 17.9465 55.3926 17.8181 55.675 17.6898C55.9574 17.5614 56.2142 17.4073 56.4452 17.2276C56.6763 17.0479 56.8304 16.9195 56.9331 16.8682C57.0101 16.7911 57.0614 16.7141 57.0871 16.6884V17.9722H59.6546ZM53.7494 15.9182C53.0818 15.9182 52.5426 15.7641 52.1575 15.456C51.7467 15.1479 51.567 14.7885 51.567 14.3777C51.567 13.9412 51.6954 13.5561 51.9778 13.2737C52.2602 12.9912 52.6453 12.7858 53.1075 12.7088L57.0871 12.0669V12.3237C57.0871 13.4791 56.8047 14.352 56.2142 14.9939C55.6236 15.6101 54.802 15.9182 53.7494 15.9182Z" fill="#323264"/>
<path d="M65.3203 0H62.7528V17.9725H65.3203V0Z" fill="#323264"/>
<path d="M76.9943 7.0603L76.8402 6.88057C76.7375 6.77787 76.5835 6.64949 76.3524 6.46977C76.1213 6.29004 75.8645 6.13599 75.5821 5.95627C75.2997 5.80222 74.9146 5.67384 74.4524 5.54547C73.9903 5.44277 73.5024 5.39142 73.0146 5.39142C71.7565 5.39142 70.7295 5.75087 69.9079 6.46977C69.0607 7.21435 68.6499 8.03595 68.6499 8.98592C68.6499 9.67915 68.8039 10.244 69.112 10.7575C69.4201 11.2453 69.8052 11.6048 70.2931 11.8102C70.7552 12.0413 71.2687 12.2723 71.8079 12.4521C72.3471 12.6318 72.8349 12.7858 73.3227 12.9142C73.7849 13.0683 74.17 13.248 74.4781 13.4791C74.7862 13.7101 74.9402 14.0182 74.9402 14.3777C74.9402 14.8398 74.7605 15.225 74.4267 15.5074C74.093 15.7641 73.5795 15.9182 72.8862 15.9182C72.3214 15.9182 71.7565 15.7641 71.2174 15.5074C70.6782 15.225 70.3444 14.9939 70.1647 14.8142C70.0106 14.6344 69.8823 14.4804 69.8052 14.3777L68.1364 16.0466L68.3161 16.2776C68.4445 16.4317 68.6242 16.6114 68.8809 16.8168C69.1634 17.0479 69.4715 17.2533 69.8052 17.4587C70.1647 17.6641 70.6268 17.8438 71.166 17.9979C71.7052 18.1519 72.2957 18.2289 72.8862 18.2289C74.247 18.2289 75.3767 17.8438 76.224 17.0992C77.0713 16.3547 77.5078 15.4304 77.5078 14.3777C77.5078 13.6845 77.3537 13.0939 77.0456 12.6318C76.7375 12.144 76.3524 11.7845 75.8645 11.5534C75.4024 11.2967 74.8889 11.0913 74.3497 10.9115C73.8105 10.7318 73.3227 10.5521 72.8349 10.4494C72.3727 10.321 71.9876 10.1156 71.6795 9.88455C71.3714 9.65347 71.2174 9.34537 71.2174 8.98592C71.2174 8.65215 71.3714 8.34405 71.7052 8.0873C72.0133 7.83055 72.4498 7.70217 73.0146 7.70217C73.4254 7.70217 73.8362 7.80487 74.2213 7.9846C74.6321 8.16432 74.9146 8.31837 75.0429 8.44675C75.1713 8.57512 75.274 8.67782 75.3254 8.72917L76.9943 7.0603Z" fill="#323264"/>
</svg>
