<svg width="434" height="509" viewBox="0 0 434 509" fill="none" xmlns="http://www.w3.org/2000/svg">
<mask id="mask0_40:2260" style="mask-type:alpha" maskUnits="userSpaceOnUse" x="0" y="0" width="430" height="501">
<rect y="0.0126953" width="430" height="500" fill="#C4C4C4"/>
</mask>
<g mask="url(#mask0_40:2260)">
<path fill-rule="evenodd" clip-rule="evenodd" d="M46.7946 687.461H0C0 687.461 187.848 109.284 207.75 48.0486C217.062 19.398 243.757 0 273.877 0H357.534C382.762 0 403.817 10.6562 416.908 28.6634C429.99 46.6715 433.701 69.7134 426.073 93.22C418.434 116.726 411.219 138.916 404.614 159.247C395.696 186.699 370.99 205.614 342.425 207.153C342.425 207.153 342.277 207.105 382.3 83.9191C385.834 73.0483 384.544 62.4078 378.992 54.7764C373.451 47.1459 364.1 42.6299 351.727 42.6299H279.941C265.845 42.6299 253.354 51.7073 248.993 65.1147L46.7946 687.461Z" fill="#F0145A"/>
<path fill-rule="evenodd" clip-rule="evenodd" d="M342.416 207.155H248.098L289.656 80.7612L336.673 81.0391L309.372 164.394L356.249 164.422L342.416 207.155Z" fill="url(#paint0_linear_40:2260)"/>
<rect x="128.473" y="290.276" width="44.5507" height="220.604" transform="rotate(17.8882 128.473 290.276)" fill="url(#paint1_linear_40:2260)"/>
</g>
<defs>
<linearGradient id="paint0_linear_40:2260" x1="248.091" y1="182.946" x2="353.01" y2="237.784" gradientUnits="userSpaceOnUse">
<stop stop-color="#F0145A"/>
<stop offset="1" stop-color="#693264"/>
</linearGradient>
<linearGradient id="paint1_linear_40:2260" x1="150.748" y1="290.276" x2="150.748" y2="510.88" gradientUnits="userSpaceOnUse">
<stop offset="0.166667" stop-color="#323264" stop-opacity="0"/>
<stop offset="1" stop-color="#323264"/>
</linearGradient>
</defs>
</svg>
