<svg width="42" height="48" viewBox="0 0 42 48" fill="none" xmlns="http://www.w3.org/2000/svg">
<path fill-rule="evenodd" clip-rule="evenodd" d="M30.7583 26.6451H18.8291L24.0854 10.6536L30.0319 10.6887L26.579 21.2349L32.5078 21.2385L30.7583 26.6451Z" fill="url(#paint0_linear_0_10055)"/>
<path fill-rule="evenodd" clip-rule="evenodd" d="M6.40442 47.4044H0.5C0.5 47.4044 11.2544 14.294 13.7657 6.56476C14.9406 2.94844 18.3089 0.5 22.1094 0.5H32.665C35.8482 0.5 38.5049 1.84505 40.1567 4.11793C41.8073 6.39094 42.2755 9.29933 41.313 12.2664C40.3492 15.2334 39.4388 18.0342 38.6055 20.6004C37.4802 24.0654 34.3628 26.453 30.7586 26.6471C30.7586 26.6471 30.74 26.6411 35.7899 11.0924C36.2358 9.72026 36.073 8.3772 35.3726 7.41395C34.6733 6.45083 33.4934 5.8808 31.9323 5.8808H22.8744C21.0959 5.8808 19.5198 7.02656 18.9696 8.71887L6.40442 47.4044Z" fill="#F0145A"/>
<defs>
<linearGradient id="paint0_linear_0_10055" x1="18.8283" y1="23.5822" x2="32.1002" y2="30.5166" gradientUnits="userSpaceOnUse">
<stop stop-color="#F0145A"/>
<stop offset="1" stop-color="#693264"/>
</linearGradient>
</defs>
</svg>
